<svg xmlns="http://www.w3.org/2000/svg" width="512" height="512" viewBox="0 0 512 512"><rect fill="#a0a5ab" width="512" height="512" rx="180" ry="180"/><path fill="#fff" d="M253.23,293.98a15.13,15.13,0,1,0,15.13,15.13A15.187,15.187,0,0,0,253.23,293.98Zm0.92-106.22c-22.5,0-43.15,16.03-43.15,34.12,0,7.37,5.54,11.24,11.99,11.24,17.88,0,8.67-24.33,32.27-24.33,11.07,0,17.7,5.9,17.7,15.85,0,18.09-32.27,23.06-32.27,45.02,0,5.9,3.87,12.35,11.8,12.35,12.18,0,10.7-9.06,15.13-15.5,5.9-8.67,33.38-17.89,33.38-41.87C301,198.63,277.76,187.76,254.15,187.76Zm0,0c-22.5,0-43.15,16.03-43.15,34.12,0,7.37,5.54,11.24,11.99,11.24,17.88,0,8.67-24.33,32.27-24.33,11.07,0,17.7,5.9,17.7,15.85,0,18.09-32.27,23.06-32.27,45.02,0,5.9,3.87,12.35,11.8,12.35,12.18,0,10.7-9.06,15.13-15.5,5.9-8.67,33.38-17.89,33.38-41.87C301,198.63,277.76,187.76,254.15,187.76Zm-0.92,106.22a15.13,15.13,0,1,0,15.13,15.13A15.187,15.187,0,0,0,253.23,293.98ZM302,100H210A110,110,0,0,0,100,210V355a19,19,0,0,0,38,0V210a72.006,72.006,0,0,1,72-72h92a72.006,72.006,0,0,1,72,72v92a72.006,72.006,0,0,1-72,72H157a19,19,0,0,0,0,38H302A110,110,0,0,0,412,302V210A110,110,0,0,0,302,100Zm-1,124.64c0-26.01-23.24-36.88-46.85-36.88-22.5,0-43.15,16.03-43.15,34.12,0,7.37,5.54,11.24,11.99,11.24,17.88,0,8.67-24.33,32.27-24.33,11.07,0,17.7,5.9,17.7,15.85,0,18.09-32.27,23.06-32.27,45.02,0,5.9,3.87,12.35,11.8,12.35,12.18,0,10.7-9.06,15.13-15.5C273.52,257.84,301,248.62,301,224.64Zm-47.77,69.34a15.13,15.13,0,1,0,15.13,15.13A15.187,15.187,0,0,0,253.23,293.98Z"/></svg>